<?xml version="1.0" encoding="UTF-8"?>
<svg id="_레이어_1" data-name="레이어 1" xmlns="http://www.w3.org/2000/svg" viewBox="0 0 283.46 283.46">
  <defs>
    <style>
      .cls-1 {
        fill: #f0a13b;
      }
    </style>
  </defs>
  <path class="cls-1" d="M17.41,162.22c-2.9,0-5.7,.22-8.82,.48v-1.61c3.76-.05,5.16-1.02,5.16-4.41v-28.34c0-3.39-1.24-4.3-5-4.36v-1.61c3.12,.32,6.08,.7,9.03,.48l7.74-.59c7.15,.38,11.29,3.6,11.29,9.41,0,4.09-2.58,8.28-8.39,9.57,5.86,.38,10.49,3.76,10.49,9.41,0,7.91-5.97,11.56-17.05,11.56h-4.46Zm3.39-21.67l1.45-.11c5.81-.38,7.21-4.14,7.21-9.09,0-3.33-1.88-5.75-4.25-6.78l-4.41,.65v15.33Zm0,2.53v16.62c6.78,.27,10.54-2.04,10.54-8.77,0-4.79-1.88-7.1-5.22-8.28l-5.32,.43Z"/>
  <path class="cls-1" d="M70.59,155.55c0,1.24,.22,2.21,1.83,2.21h2.53v1.08c-3.71,0-9.04,1.77-11.19,4.3v-4.95l-10.43,4.89c-3.23-.22-6.88-2.47-6.88-9.73v-13.71c0-1.24-.16-2.2-1.83-2.2h-3.66v-1.08c4.25,0,10.33-1.02,12.37-3.55v19.41c0,4.89,1.24,6.83,2.9,7.21l7.53-3.28v-16.51c0-1.24-.16-2.2-1.83-2.2h-2.53v-1.08c4.3,0,8.93-1.02,11.19-3.55v22.75Z"/>
  <path class="cls-1" d="M75.7,162.71v-1.45c3.82,0,5.32-.05,5.32-3.33v-30.01c0-1.24-.16-2.2-1.83-2.2h-3.66v-1.08c4.25,0,10.49-1.77,12.37-4.3v37.59c0,3.28,1.51,3.33,5.32,3.33v1.45c-2.58-.27-5.97-.38-8.77-.38s-6.18,.11-8.77,.38Z"/>
  <path class="cls-1" d="M93.87,162.71v-1.45c3.82,0,5.32-.05,5.32-3.33v-30.01c0-1.24-.16-2.2-1.83-2.2h-3.66v-1.08c4.25,0,10.49-1.77,12.37-4.3v37.59c0,3.28,1.51,3.33,5.32,3.33v1.45c-2.58-.27-5.97-.38-8.77-.38s-6.18,.11-8.77,.38Z"/>
  <path class="cls-1" d="M138.83,155.88c-1.45,2.53-4.36,4.46-6.02,5.22l-1.83,.81c-2.42,1.08-3.44,1.18-4.68,1.18-7.21,0-12.59-5.16-12.59-13.28s4.57-12.53,7.8-13.93l1.88-.81c1.88-.86,3.6-1.61,4.89-1.61,4.52,0,7.74,3.01,9.09,7.74,.59,2.1,.91,2.63,1.94,3.01v1.56l-18.72,3.55c.59,6.83,3.82,10.43,9.2,10.43,.75,0,1.67-.05,2.42-.22,1.61-.86,3.23-2.9,4.25-4.95l2.37,1.29Zm-7.21-10.65c-.59-5.32-2.26-8.55-6.4-8.55-.59,0-1.34,.05-2.1,.22-1.88,2.74-2.64,6.67-2.53,10.33l11.03-1.99Z"/>
  <path class="cls-1" d="M146.73,137.27h-4.73v-1.4c3.5-.27,9.63-2.1,9.63-11.13h1.99v10.27h9.09l-1.67,2.26h-7.42v15.38c0,4.68,.27,6.51,1.24,6.94,2.63-.22,6.35-1.94,7.37-2.69l.7,1.24c-2.1,1.83-8.44,4.89-12.05,4.95-1.88,0-4.14-3.39-4.14-4.46v-21.35Z"/>
  <path class="cls-1" d="M187.17,162.22c-2.9,0-5.7,.22-8.82,.48v-1.61c3.76-.05,5.16-1.02,5.16-4.41v-28.34c0-3.39-1.24-4.3-5-4.36v-1.61c3.12,.32,6.08,.7,9.03,.48l7.74-.59c7.15,.38,11.29,3.6,11.29,9.41,0,4.09-2.58,8.28-8.39,9.57,5.86,.38,10.49,3.76,10.49,9.41,0,7.91-5.97,11.56-17.05,11.56h-4.46Zm3.39-21.67l1.45-.11c5.81-.38,7.21-4.14,7.21-9.09,0-3.33-1.88-5.75-4.25-6.78l-4.41,.65v15.33Zm0,2.53v16.62c6.78,.27,10.54-2.04,10.54-8.77,0-4.79-1.88-7.1-5.22-8.28l-5.32,.43Z"/>
  <path class="cls-1" d="M230.84,161.85c-2.42,1.13-2.64,1.24-4.63,1.24-7.8,0-13.18-5.59-13.18-13.82,0-7.69,4.95-12.05,8.12-13.5l2.26-1.08c2.42-1.13,2.64-1.24,4.63-1.24,7.8,0,13.18,5.65,13.18,13.93,0,7.64-5,11.94-8.12,13.39l-2.26,1.08Zm3.39-13.02c0-7.1-2.9-12.15-9.3-12.15-.81,0-1.56,.05-2.42,.22-1.72,2.42-2.47,6.94-2.47,10.86,0,7.1,2.9,12.15,9.25,12.15,.81,0,1.61-.05,2.47-.22,1.72-2.47,2.47-6.94,2.47-10.86Z"/>
  <path class="cls-1" d="M255.36,149.26l-7.53-10.16c-2.1-2.8-2.53-3.71-5.43-3.82v-1.34c2.04,.27,5.22,.43,8.01,.43s6.08-.22,8.07-.43v1.34c-3.07,0-4.3,.22-4.3,1.08,0,.54,.48,1.29,1.18,2.31l4.68,6.35,4.52-5.49c.86-1.13,1.24-1.88,1.24-2.74,0-.91-1.24-1.45-3.33-1.51v-1.34c2.04,.27,4.19,.43,6.02,.43s3.76-.05,5.54-.43v1.34c-3.55,0-5,2.1-7.31,4.95l-5.32,6.56,7.85,10.59c2.1,2.8,2.69,3.71,5.65,3.82v1.45c-1.88-.22-5.06-.43-7.64-.43-2.96,0-6.51,.16-8.66,.43v-1.45c3.12,0,4.3-.16,4.3-1.08,0-.54-.38-1.34-1.18-2.31l-5-6.72-5.06,6.35c-.86,1.13-1.29,1.72-1.29,2.42,0,.91,1.24,1.29,3.33,1.34v1.45c-1.99-.22-4.19-.43-5.97-.43-1.94,0-3.87,.16-5.75,.43v-1.45c3.82,0,5.22-1.61,7.48-4.46l5.92-7.48Z"/>
</svg>