<?xml version="1.0" encoding="UTF-8"?>
<svg id="_레이어_1" data-name="레이어 1" xmlns="http://www.w3.org/2000/svg" viewBox="0 0 283.46 283.46">
  <defs>
    <style>
      .cls-1 {
        fill: #f0a13b;
      }
    </style>
  </defs>
  <path class="cls-1" d="M31.07,141.35c5.94,.38,10.91,3.87,10.91,9.54,0,8.02-6.05,11.62-17.29,11.62h-3.27c-1.8,0-5.51,.22-8.62,.49v-.98c3.33-.05,5.07-1.04,5.07-4.47v-29.94c0-3.49-1.58-4.42-4.91-4.47v-1.04c2.56,.33,7.53,.6,9.33,.49l5.89-.55c7.31,.33,11.67,3.54,11.67,9.33,0,4.2-2.89,8.67-8.78,9.98Zm-3-17.67l-5.34,.71v16.74l2.67-.22c5.89-.38,9.33-3.6,9.33-9.38,0-3.71-1.42-6.76-6.65-7.85Zm-5.34,19.09v18c9.33,.55,14.02-2.07,14.02-9.71,0-5.18-2.89-7.85-7.8-8.78l-6.22,.49Z"/>
  <path class="cls-1" d="M67.29,158.53l-11.23,4.8c-1.31,0-6.49-2.02-6.49-9.87v-13.85c0-1.31-.16-2.24-1.85-2.24h-3.33v-.65c3.82,0,8.34-1.8,9.71-3.44v19.85c0,5.89,3.49,7.53,4.58,7.63l8.62-3.6v-17.56c0-1.31-.16-2.24-1.85-2.24h-2.73v-.65c3.16,0,7.74-1.8,9.11-3.44v24.38c0,1.31,.16,2.18,1.85,2.18h2.73v.65c-3.16,0-7.74,2.18-9.11,2.94v-4.91Z"/>
  <path class="cls-1" d="M87.85,158.64c0,3.33,.98,3.38,4.85,3.38v.98c-2.45-.27-4.8-.38-7.14-.38-2.56,0-5.07,.11-7.91,.38v-.98c3.87,0,5.62-.05,5.62-3.38v-30.92c0-1.31-.16-2.24-1.85-2.24h-3.93v-.65c4.36,0,8.45-2.24,10.36-4.8v38.61Z"/>
  <path class="cls-1" d="M104.16,158.64c0,3.33,.98,3.38,4.85,3.38v.98c-2.45-.27-4.8-.38-7.14-.38-2.56,0-5.07,.11-7.91,.38v-.98c3.87,0,5.62-.05,5.62-3.38v-30.92c0-1.31-.16-2.24-1.85-2.24h-3.93v-.65c4.36,0,8.45-2.24,10.36-4.8v38.61Z"/>
  <path class="cls-1" d="M136.66,156.18c-1.96,2.94-4.53,4.42-6.22,5.18l-1.85,.82c-2.45,1.09-2.89,1.15-4.14,1.15-6.87,0-12-5.29-12.32-13.52-.27-8.18,4.04-12.54,7.31-14.02l1.91-.82c2.45-1.09,3.38-1.25,4.69-1.31,3.93-.22,7.53,2.94,8.51,7.03,.38,1.53,1.15,3.11,2.24,3.44v1.36l-20.07,3.44c.55,6.76,3.93,12.05,10.14,11.94,1.04,0,2.07-.11,2.94-.27,2.07-.98,3.65-2.78,5.13-5.4l1.75,.98Zm-5.34-11.29c-.98-5.56-3.87-9.05-7.85-9.05-1.04,0-2.18,.22-3.38,.71-2.84,2.73-3.49,7.14-3.44,10.85l14.67-2.51Z"/>
  <path class="cls-1" d="M144.95,136.82h-4.58v-1.04c3.76-.71,7.69-3.05,7.69-11.23h1.53v10.58h9.38l-1.31,1.69h-8.07v16.69c0,4.74,.38,6.93,1.2,7.14,2.67-.27,7.2-2.18,8.29-2.94l.38,.65c-1.58,1.47-8.4,4.8-11.07,5.02-1.85,0-3.44-3.44-3.44-4.53v-22.03Z"/>
  <path class="cls-1" d="M194.58,141.35c5.94,.38,10.91,3.87,10.91,9.54,0,8.02-6.05,11.62-17.29,11.62h-3.27c-1.8,0-5.51,.22-8.62,.49v-.98c3.33-.05,5.07-1.04,5.07-4.47v-29.94c0-3.49-1.58-4.42-4.91-4.47v-1.04c2.56,.33,7.53,.6,9.33,.49l5.89-.55c7.31,.33,11.67,3.54,11.67,9.33,0,4.2-2.89,8.67-8.78,9.98Zm-3-17.67l-5.34,.71v16.74l2.67-.22c5.89-.38,9.33-3.6,9.33-9.38,0-3.71-1.42-6.76-6.65-7.85Zm-5.34,19.09v18c9.33,.55,14.02-2.07,14.02-9.71,0-5.18-2.89-7.85-7.8-8.78l-6.22,.49Z"/>
  <path class="cls-1" d="M229.05,161.26l-1.85,.82c-2.45,1.04-2.67,1.25-4.74,1.25-6.54,0-12.11-5.78-12.11-14.07s4.04-12.05,7.31-13.52l1.91-.82c2.45-1.09,2.78-1.25,4.69-1.25,7.31,0,12.16,6.16,12.16,13.36,0,9.16-4.25,12.82-7.36,14.23Zm-3.87-.33c1.2,0,2.13-.16,3.22-.49,2.62-1.91,3.6-5.89,3.6-10.85,0-7.69-3.93-13.63-10.25-13.63-1.04,0-2.24,.22-3.44,.55-2.89,2.78-3.44,7.14-3.44,10.91,0,7.53,3.76,13.52,10.31,13.52Z"/>
  <path class="cls-1" d="M252.28,149.15l-6.87-10.03c-2.02-2.94-2.67-3.76-6.65-3.87v-.98c2.07,.27,4.64,.38,7.47,.38s5.45-.16,7.47-.38v.98c-3.11,0-4.42,.27-4.42,1.09,0,.55,.44,1.31,1.15,2.35l4.96,7.31,5.07-6.43c.87-1.15,1.31-2.02,1.31-2.73,0-.98-1.09-1.53-3.22-1.58v-.98c2.07,.27,3.93,.38,5.73,.38,1.91,0,3.82-.05,5.67-.38v.98c-4.53,0-5.73,2.07-7.96,5.02l-5.62,7.14,7.42,10.74c2.02,2.95,2.73,3.71,6.87,3.87v.98c-1.91-.22-4.53-.38-7.14-.38-2.94,0-6,.11-8.18,.38v-.98c3.22,0,4.58-.22,4.58-1.09,0-.55-.49-1.31-1.2-2.4l-5.45-7.91-5.51,7.09c-.87,1.15-1.31,2.02-1.31,2.73,0,.98,1.09,1.53,3.22,1.58v.98c-2.02-.22-3.93-.38-5.67-.38-1.96,0-3.82,.11-5.73,.38v-.98c4.47,0,5.89-2.29,7.96-5.02l6.05-7.85Z"/>
</svg>