<?xml version="1.0" encoding="utf-8"?>
<!-- Generator: Adobe Illustrator 27.2.0, SVG Export Plug-In . SVG Version: 6.00 Build 0)  -->
<svg version="1.1" id="레이어_1" xmlns="http://www.w3.org/2000/svg" xmlns:xlink="http://www.w3.org/1999/xlink" x="0px"
	 y="0px" viewBox="0 0 24 24" style="enable-background:new 0 0 24 24;" xml:space="preserve">
<g>
	<path d="M12,2.5c-5.2,0-9.5,4.3-9.5,9.5s4.3,9.5,9.5,9.5c5.2,0,9.5-4.3,9.5-9.5S17.2,2.5,12,2.5z M12,19.4c-4.1,0-7.4-3.3-7.4-7.4
		S7.9,4.6,12,4.6c4.1,0,7.4,3.3,7.4,7.4S16.1,19.4,12,19.4z"/>
	<path d="M12,6.3c-3.2,0-5.7,2.6-5.7,5.7s2.6,5.7,5.7,5.7c3.2,0,5.7-2.6,5.7-5.7S15.2,6.3,12,6.3z M12,15.6c-2,0-3.6-1.6-3.6-3.6
		S10,8.4,12,8.4c2,0,3.6,1.6,3.6,3.6S14,15.6,12,15.6z"/>
</g>
</svg>
