<svg width="64" height="64" viewBox="0 0 64 64" fill="none" xmlns="http://www.w3.org/2000/svg">
<g clip-path="url(#clip0_934_68)">
<path d="M11.6487 1.4112C12.0396 1.4112 12.3574 1.09457 12.3574 0.705111C12.3574 0.315648 12.0396 -0.000976562 11.6487 -0.000976562C11.2578 -0.000976562 10.9399 0.315648 10.9399 0.705111C10.9399 1.09457 11.2578 1.4112 11.6487 1.4112Z" fill="#FF9000"/>
<path d="M5.80439 2.36654C6.34899 2.36654 6.79139 1.92505 6.79139 1.38322C6.79139 0.841393 6.34825 0.399902 5.80439 0.399902C5.26053 0.399902 4.81738 0.841393 4.81738 1.38322C4.81738 1.92505 5.26053 2.36654 5.80439 2.36654ZM5.80439 0.639972C6.21545 0.639972 6.55042 0.973691 6.55042 1.38322C6.55042 1.79275 6.21545 2.12647 5.80439 2.12647C5.39332 2.12647 5.05835 1.79275 5.05835 1.38322C5.05835 0.973691 5.39332 0.639972 5.80439 0.639972Z" fill="#FF9000"/>
<path d="M4.93726 4.67197H6.6703C6.7367 4.67197 6.79116 4.61771 6.79116 4.55156C6.79116 4.48541 6.7367 4.43115 6.6703 4.43115H4.93726C4.87087 4.43115 4.81641 4.48541 4.81641 4.55156C4.81641 4.61771 4.87087 4.67197 4.93726 4.67197Z" fill="#FF9000"/>
<path d="M3.44149 4.20066C3.46313 4.23782 3.50267 4.26086 3.54594 4.26086C3.56683 4.26086 3.58772 4.25491 3.60637 4.24451C3.63397 4.22816 3.65411 4.20289 3.66232 4.17167C3.67053 4.14045 3.66605 4.10849 3.65038 4.08025L3.32138 3.51315H3.97864C4.04504 3.51315 4.0995 3.45889 4.0995 3.39274C4.0995 3.3266 4.04504 3.27234 3.97864 3.27234H3.32138L3.65038 2.70524C3.6668 2.67774 3.67053 2.64504 3.66232 2.61382C3.65411 2.5826 3.63397 2.55659 3.60637 2.54098C3.57877 2.52463 3.54594 2.52091 3.51461 2.52909C3.48327 2.53726 3.45716 2.55733 3.44149 2.58483L3.11249 3.15193L2.78349 2.58483C2.76782 2.55733 2.74171 2.53726 2.71038 2.52909C2.67905 2.52091 2.64697 2.52537 2.61862 2.54098C2.56117 2.57443 2.54103 2.64801 2.5746 2.70524L2.9036 3.27234H2.24635C2.17995 3.27234 2.12549 3.3266 2.12549 3.39274C2.12549 3.45889 2.17995 3.51315 2.24635 3.51315H2.9036L2.5746 4.08025C2.54103 4.13748 2.56117 4.21106 2.61862 4.24451C2.63727 4.25491 2.65816 4.26086 2.67905 4.26086C2.72232 4.26086 2.76186 4.23782 2.78349 4.20066L3.11249 3.63356L3.44149 4.20066V4.20066Z" fill="#FF9000"/>
<path d="M8.52818 1.40201L9.41149 2.15195L8.52818 2.90189C8.47745 2.945 8.47148 3.02081 8.51475 3.07135C8.53788 3.09811 8.57145 3.11372 8.60651 3.11372C8.63486 3.11372 8.66321 3.10331 8.68485 3.08473L9.67633 2.24337C9.70318 2.22033 9.71885 2.18688 9.71885 2.15195C9.71885 2.11702 9.70318 2.08357 9.67633 2.06053L8.68485 1.21917C8.66023 1.19836 8.62889 1.18796 8.59681 1.19093C8.56473 1.19316 8.53564 1.20802 8.51475 1.23255C8.49386 1.25708 8.48342 1.2883 8.4864 1.32025C8.48864 1.35221 8.50356 1.3812 8.52818 1.40201Z" fill="#FF9000"/>
<path d="M8.37869 6.92041C8.40182 6.94717 8.43539 6.96278 8.47046 6.96278C8.47195 6.96278 8.47419 6.96278 8.47568 6.96278C8.51298 6.96129 8.5473 6.94271 8.56893 6.91224L9.69097 5.34324C9.70962 5.31722 9.71708 5.28526 9.71186 5.2533C9.70664 5.22134 9.68948 5.19384 9.66262 5.17526C9.63651 5.15668 9.60443 5.14925 9.57235 5.15445C9.54027 5.15965 9.51267 5.17675 9.49402 5.20351L8.4615 6.6469L7.99076 6.09615C7.94749 6.04561 7.87139 6.03966 7.82066 6.08277C7.76993 6.12588 7.76396 6.20169 7.80723 6.25223L8.37795 6.92041H8.37869Z" fill="#FF9000"/>
<path d="M11.0623 4.33388L10.9653 4.89801C10.9579 4.94334 10.9758 4.98868 11.0131 5.01544C11.034 5.03105 11.0586 5.03848 11.084 5.03848C11.1034 5.03848 11.1228 5.03402 11.1399 5.02436L11.648 4.75828L12.156 5.02436C12.1732 5.03328 12.1926 5.03848 12.212 5.03848C12.2373 5.03848 12.262 5.03031 12.2828 5.01544C12.3201 4.98868 12.3388 4.94334 12.3306 4.89801L12.2336 4.33388L12.6447 3.93475C12.6775 3.9028 12.6894 3.85523 12.6753 3.81138C12.6611 3.76752 12.6238 3.73631 12.5775 3.72962L12.0091 3.64712L11.7547 3.13428C11.7345 3.09265 11.6927 3.06738 11.6465 3.06738C11.6002 3.06738 11.5584 3.0934 11.5383 3.13428L11.2839 3.64712L10.7154 3.72962C10.6699 3.73631 10.6326 3.76752 10.6177 3.81138C10.6035 3.85523 10.6155 3.9028 10.6483 3.93475L11.0593 4.33388H11.0623ZM11.9859 4.31233L12.0523 4.69807L11.7039 4.51598C11.6868 4.50706 11.6674 4.5026 11.648 4.5026C11.6286 4.5026 11.6092 4.50706 11.592 4.51672L11.2444 4.69882L11.3108 4.31307C11.3175 4.27442 11.3048 4.23428 11.2757 4.20678L10.9944 3.93327L11.3831 3.87678C11.4227 3.87084 11.4562 3.84631 11.4741 3.81138L11.648 3.45982L11.8218 3.81138C11.839 3.84705 11.8733 3.87158 11.9128 3.87752L12.3015 3.93401L12.0202 4.20753C11.9919 4.23503 11.9792 4.27516 11.9852 4.31381L11.9859 4.31233Z" fill="#FF9000"/>
<path d="M6.00425 9.34577C5.96471 9.35394 5.92368 9.35766 5.8834 9.35766C5.77373 9.35766 5.66555 9.32793 5.57155 9.27144L4.45996 8.604V10.0637C4.45996 10.141 4.49726 10.2131 4.56068 10.2577L7.44559 12.2853C7.60375 12.3961 7.82085 12.2838 7.82085 12.0913V8.96597C7.78802 8.97934 7.75296 8.98975 7.71715 8.99718L6.00425 9.34651V9.34577Z" fill="#FF9000"/>
<path d="M5.76681 8.94818C5.80188 8.96899 5.84216 8.98014 5.88245 8.98014C5.89737 8.98014 5.91229 8.97865 5.92721 8.97568L7.64011 8.62635C7.70725 8.61297 7.75649 8.57432 7.78633 8.52453C7.84601 8.42642 7.82736 8.2852 7.71098 8.21533L4.91783 6.53782C4.88276 6.51701 4.84248 6.50586 4.80219 6.50586C4.78727 6.50586 4.77235 6.50735 4.75743 6.51032L3.04453 6.85965C2.84385 6.90053 2.79834 7.16512 2.97366 7.27066L4.45901 8.16256L5.76681 8.94743V8.94818Z" fill="#FF9000"/>
<path d="M10.0542 9.3584C10.0139 9.3584 9.97284 9.35394 9.9333 9.34651L8.2204 8.99718C8.18459 8.98975 8.14952 8.97934 8.1167 8.96597V12.0913C8.1167 12.2838 8.33454 12.3961 8.49195 12.2853L11.3769 10.2577C11.4403 10.2131 11.4776 10.141 11.4776 10.0637V8.604L10.366 9.27144C10.272 9.32793 10.1638 9.35766 10.0542 9.35766V9.3584Z" fill="#FF9000"/>
<path d="M12.8931 6.85965L11.1802 6.51032C11.1652 6.50735 11.1503 6.50586 11.1354 6.50586C11.0951 6.50586 11.0548 6.51701 11.0198 6.53782L8.22662 8.21533C8.11023 8.2852 8.09158 8.42642 8.15127 8.52453C8.18111 8.57358 8.23109 8.61223 8.29749 8.62635L10.0104 8.97568C10.0253 8.97865 10.0402 8.98014 10.0551 8.98014C10.0954 8.98014 10.1357 8.96899 10.1708 8.94818L11.4786 8.16331L12.9639 7.27141C13.1393 7.16587 13.0937 6.90127 12.8931 6.86039V6.85965Z" fill="#FF9000"/>
</g>
<g clip-path="url(#clip1_934_68)">
<path d="M0.525329 15.9457C0.3523 15.9457 0.185515 15.9582 0 15.9743V15.878C0.223867 15.8744 0.307705 15.8173 0.307705 15.6148V13.9265C0.307705 13.7249 0.233678 13.6705 0.00981089 13.6669V13.5706C0.195326 13.5902 0.371922 13.6125 0.548518 13.5992L1.00963 13.5635C1.43596 13.5858 1.68212 13.7784 1.68212 14.1245C1.68212 14.368 1.52872 14.6177 1.18266 14.6953C1.53228 14.7176 1.80788 14.9192 1.80788 15.2563C1.80788 15.7272 1.45201 15.9448 0.792007 15.9448H0.526221L0.525329 15.9457ZM0.726898 14.6543L0.813412 14.648C1.15947 14.6257 1.24242 14.401 1.24242 14.1066C1.24242 13.9077 1.13004 13.7642 0.989116 13.7026L0.726006 13.741V14.6543H0.726898ZM0.726898 14.805V15.795C1.13093 15.8111 1.3548 15.6728 1.3548 15.2724C1.3548 14.9869 1.24242 14.8496 1.04441 14.7791L0.726898 14.805V14.805Z" fill="#FF9000"/>
<path d="M3.69427 15.5481C3.69427 15.6221 3.70675 15.6792 3.80308 15.6792H3.95381V15.7434C3.73262 15.7434 3.4151 15.8495 3.28756 15.9994V15.7042L2.66591 15.9958C2.47326 15.9833 2.25563 15.8486 2.25563 15.4161V14.5991C2.25563 14.5251 2.24582 14.468 2.14682 14.468H1.9292V14.4038C2.1825 14.4038 2.54461 14.3431 2.66591 14.1924V15.3492C2.66591 15.6408 2.73994 15.7559 2.83894 15.7782L3.28756 15.5829V14.5991C3.28756 14.5251 3.27775 14.468 3.17875 14.468H3.02802V14.4038C3.28399 14.4038 3.55959 14.3431 3.69427 14.1924V15.5481V15.5481Z" fill="#FF9000"/>
<path d="M3.99818 15.9743V15.8878C4.22561 15.8878 4.31569 15.8842 4.31569 15.6889V13.9015C4.31569 13.8275 4.30588 13.7704 4.20688 13.7704H3.98926V13.7062C4.24256 13.7062 4.61448 13.6 4.72597 13.4502V15.6898C4.72597 15.8851 4.81605 15.8886 5.04348 15.8886V15.9752C4.89008 15.9591 4.68762 15.9529 4.52083 15.9529C4.35404 15.9529 4.15248 15.9591 3.99818 15.9752V15.9743Z" fill="#FF9000"/>
<path d="M5.08118 15.9743V15.8878C5.30862 15.8878 5.3987 15.8842 5.3987 15.6889V13.9015C5.3987 13.8275 5.38889 13.7704 5.28989 13.7704H5.07227V13.7062C5.32557 13.7062 5.69749 13.6 5.80897 13.4502V15.6898C5.80897 15.8851 5.89906 15.8886 6.12649 15.8886V15.9752C5.97308 15.9591 5.77062 15.9529 5.60384 15.9529C5.43705 15.9529 5.23548 15.9591 5.08118 15.9752V15.9743Z" fill="#FF9000"/>
<path d="M7.76028 15.5674C7.67376 15.7182 7.50074 15.8332 7.40174 15.8778L7.29292 15.926C7.14844 15.9902 7.08779 15.9964 7.01376 15.9964C6.58476 15.9964 6.26367 15.6887 6.26367 15.2053C6.26367 14.7219 6.5357 14.4588 6.72835 14.375L6.84073 14.3268C6.95311 14.276 7.05568 14.2305 7.13238 14.2305C7.40174 14.2305 7.59349 14.4097 7.67376 14.6916C7.70944 14.8164 7.72817 14.8486 7.78882 14.8709V14.9636L6.67395 15.175C6.70962 15.5817 6.90138 15.7966 7.22157 15.7966C7.26617 15.7966 7.32057 15.7931 7.36606 15.7842C7.46238 15.7324 7.55871 15.6111 7.61936 15.4889L7.76028 15.5656V15.5674ZM7.33127 14.9333C7.2956 14.6158 7.1966 14.424 6.94954 14.424C6.91387 14.424 6.86927 14.4276 6.82468 14.4365C6.7123 14.5997 6.6677 14.8343 6.67395 15.0519L7.33127 14.9333Z" fill="#FF9000"/>
<path d="M8.23155 14.4589H7.94971V14.376C8.15841 14.3599 8.5232 14.2511 8.5232 13.7124H8.64182V14.3242H9.1832L9.0842 14.4589H8.64182V15.3758C8.64182 15.655 8.65788 15.7638 8.71585 15.7887C8.87282 15.7763 9.09401 15.6737 9.15466 15.6282L9.19658 15.7022C9.07172 15.811 8.69355 15.9939 8.4786 15.9974C8.36622 15.9974 8.23155 15.7959 8.23155 15.7317V14.4598V14.4589Z" fill="#FF9000"/>
<path d="M10.6406 15.9457C10.4675 15.9457 10.3007 15.9582 10.1152 15.9743V15.878C10.3391 15.8744 10.4229 15.8173 10.4229 15.6148V13.9265C10.4229 13.7249 10.3489 13.6705 10.125 13.6669V13.5706C10.3106 13.5902 10.4872 13.6125 10.6638 13.5992L11.1249 13.5635C11.5512 13.5858 11.7974 13.7784 11.7974 14.1245C11.7974 14.368 11.6439 14.6177 11.2979 14.6953C11.6475 14.7176 11.9231 14.9192 11.9231 15.2563C11.9231 15.7272 11.5672 15.9448 10.9072 15.9448H10.6415L10.6406 15.9457ZM10.8421 14.6543L10.9286 14.648C11.2747 14.6257 11.3576 14.401 11.3576 14.1066C11.3576 13.9077 11.2453 13.7642 11.1044 13.7026L10.8412 13.741V14.6543H10.8421ZM10.8421 14.805V15.795C11.2462 15.8111 11.47 15.6728 11.47 15.2724C11.47 14.9869 11.3577 14.8496 11.1596 14.7791L10.8421 14.805V14.805Z" fill="#FF9000"/>
<path d="M13.2421 15.9234C13.0976 15.9903 13.0851 15.9974 12.9665 15.9974C12.5018 15.9974 12.1816 15.6638 12.1816 15.1742C12.1816 14.7157 12.4769 14.4562 12.6659 14.3697L12.8006 14.3055C12.9451 14.2386 12.9576 14.2314 13.0762 14.2314C13.5409 14.2314 13.8611 14.5677 13.8611 15.0618C13.8611 15.5167 13.5632 15.7735 13.3768 15.8601L13.2421 15.9243V15.9234ZM13.4437 15.1483C13.4437 14.7256 13.2706 14.4241 12.8889 14.4241C12.8408 14.4241 12.7962 14.4277 12.7444 14.4366C12.6419 14.5811 12.5973 14.8495 12.5973 15.0841C12.5973 15.5069 12.7703 15.8083 13.1485 15.8083C13.1966 15.8083 13.2448 15.8048 13.2956 15.7958C13.3982 15.6487 13.4428 15.3829 13.4428 15.1483H13.4437Z" fill="#FF9000"/>
<path d="M14.7031 15.1731L14.2545 14.5675C14.1296 14.4007 14.1038 14.3463 13.9307 14.34V14.2598C14.0529 14.2758 14.2411 14.2856 14.4079 14.2856C14.5747 14.2856 14.77 14.2731 14.8886 14.2598V14.34C14.7058 14.34 14.6327 14.3525 14.6327 14.4043C14.6327 14.4364 14.6612 14.481 14.7031 14.5416L14.9823 14.9198L15.2516 14.5933C15.3025 14.5264 15.3257 14.481 15.3257 14.4301C15.3257 14.3757 15.2516 14.3436 15.1268 14.34V14.2598C15.249 14.2758 15.3765 14.2856 15.4853 14.2856C15.5941 14.2856 15.7092 14.2821 15.8153 14.2598V14.34C15.6039 14.34 15.5174 14.4649 15.3792 14.6344L15.0617 15.025L15.5299 15.6565C15.6548 15.8233 15.6905 15.8777 15.8662 15.8839V15.9704C15.7538 15.9579 15.5647 15.9446 15.4113 15.9446C15.2347 15.9446 15.0233 15.9544 14.8958 15.9704V15.8839C15.0813 15.8839 15.1517 15.8741 15.1517 15.8197C15.1517 15.7876 15.1294 15.7394 15.0813 15.6823L14.7834 15.2819L14.4819 15.66C14.4311 15.7269 14.4052 15.7626 14.4052 15.8045C14.4052 15.8589 14.4793 15.8812 14.6041 15.8848V15.9713C14.4855 15.9588 14.3544 15.9455 14.2483 15.9455C14.1332 15.9455 14.0172 15.9553 13.9058 15.9713V15.8848C14.1332 15.8848 14.2161 15.7885 14.3508 15.619L14.7031 15.174V15.1731Z" fill="#FF9000"/>
</g>
<defs>
<clipPath id="clip0_934_68">
<rect width="10.9473" height="12.329" fill="white" transform="translate(2.12549)"/>
</clipPath>
<clipPath id="clip1_934_68">
<rect width="15.8669" height="2.55083" fill="white" transform="translate(0 13.4492)"/>
</clipPath>
</defs>
</svg>
