<?xml version="1.0" encoding="UTF-8"?>
<svg id="_레이어_1" data-name="레이어 1" xmlns="http://www.w3.org/2000/svg" viewBox="25 20 236.46 240">
  <defs>
    <style>
      .cls-1 {
        fill: current;
      }
    </style>
  </defs>
  <path class="cls-1" d="M223.76,45.1c7.91,0,14.35-6.44,14.35-14.35s-6.44-14.35-14.35-14.35-14.35,6.44-14.35,14.35,6.44,14.35,14.35,14.35Z"/>
  <path class="cls-1" d="M105.37,64.5c11.03,0,20-8.97,20-20s-8.97-20-20-20-20,8.97-20,20,8.97,20,20,20Zm0-35.11c8.33,0,15.11,6.78,15.11,15.11s-6.78,15.11-15.11,15.11-15.11-6.78-15.11-15.11,6.78-15.11,15.11-15.11Z"/>
  <path class="cls-1" d="M87.82,111.39h35.11c1.35,0,2.44-1.1,2.44-2.44s-1.1-2.44-2.44-2.44h-35.11c-1.35,0-2.44,1.1-2.44,2.44s1.1,2.44,2.44,2.44Z"/>
  <path class="cls-1" d="M57.52,101.81c.43,.75,1.25,1.22,2.12,1.22,.43,0,.85-.11,1.22-.33,.57-.33,.97-.85,1.14-1.48,.17-.63,.08-1.29-.24-1.85l-6.66-11.54h13.32c1.35,0,2.44-1.1,2.44-2.44s-1.1-2.44-2.44-2.44h-13.32l6.66-11.54c.33-.57,.41-1.22,.24-1.85-.17-.63-.57-1.16-1.14-1.48-.57-.33-1.22-.41-1.86-.24-.63,.17-1.16,.57-1.48,1.14l-6.66,11.54-6.66-11.53c-.32-.57-.85-.97-1.48-1.14-.63-.17-1.29-.08-1.86,.24-1.17,.67-1.57,2.17-.89,3.34l6.66,11.54h-13.32c-1.35,0-2.44,1.1-2.44,2.44s1.1,2.44,2.44,2.44h13.32l-6.66,11.54c-.67,1.17-.27,2.67,.89,3.34,.37,.21,.79,.33,1.22,.33,.87,0,1.68-.47,2.12-1.22l6.66-11.54,6.66,11.54Z"/>
  <!-- <path class="cls-1" d="M160.55,44.89l17.89,15.24-17.89,15.24c-1.03,.87u-1.15,2.42-.28,3.44,.46,.55,1.14,.86,1.86,.86,.58,0,1.14-.21,1.58-.58l20.08-17.1c.55-.46,.86-1.14,.86-1.86s-.31-1.4-.86-1.86l-20.08-17.1c-.5-.42-1.13-.63-1.78-.58-.65,.05-1.24,.35-1.67,.85-.42,.5-.63,1.13-.58,1.78,.05,.65,.35,1.24,.85,1.67Z"/> -->
  <path class="cls-1" d="M157.53,157.1c.47,.55,1.14,.86,1.86,.86,.03,0,.07,0,.11,0,.76-.03,1.45-.41,1.89-1.02l22.73-31.91c.38-.53,.53-1.18,.42-1.82-.11-.64-.46-1.21-.99-1.59-.53-.38-1.18-.53-1.82-.42-.64,.11-1.21,.46-1.59,.99l-20.91,29.35-9.53-11.2c-.87-1.03-2.42-1.15-3.45-.28-1.03,.87-1.15,2.42-.28,3.45l11.56,13.58Z"/>
  <path class="cls-1" d="M211.89,104.51l-1.97,11.46c-.16,.92,.21,1.84,.97,2.39,.43,.31,.93,.47,1.43,.47,.39,0,.78-.09,1.14-.28l10.29-5.41,10.3,5.41c.35,.18,.74,.28,1.14,.28,.52,0,1.02-.16,1.44-.47,.76-.55,1.13-1.47,.97-2.39l-1.97-11.46,8.33-8.12c.67-.65,.91-1.61,.62-2.51-.29-.89-1.05-1.53-1.97-1.66l-11.51-1.67-5.15-10.43c-.41-.84-1.25-1.36-2.19-1.36s-1.78,.52-2.19,1.36l-5.15,10.43-11.51,1.67c-.93,.13-1.68,.77-1.97,1.66-.29,.89-.05,1.85,.62,2.51l8.33,8.12Zm18.71-.44l1.35,7.85-7.05-3.71c-.35-.18-.74-.28-1.14-.28s-.79,.1-1.14,.28l-7.05,3.71,1.35-7.85c.14-.79-.13-1.6-.7-2.16l-5.7-5.56,7.88-1.14c.8-.12,1.48-.62,1.84-1.34l3.52-7.14,3.53,7.14c.35,.72,1.04,1.22,1.84,1.34l7.88,1.14-5.7,5.56c-.58,.56-.84,1.37-.7,2.16Z"/>
  <path class="cls-1" d="M109.42,206.42c-.81,.16-1.63,.25-2.45,.25-2.23,0-4.41-.61-6.32-1.76l-22.52-13.57v29.68c0,1.57,.76,3.04,2.04,3.94l58.43,41.22c3.2,2.26,7.61-.03,7.61-3.94v-63.55c-.67,.27-1.37,.49-2.1,.63l-34.7,7.1Z"/>
  <path class="cls-1" d="M104.62,198.33c.71,.43,1.53,.65,2.35,.65,.3,0,.61-.03,.91-.09l34.7-7.1c1.36-.28,2.36-1.06,2.97-2.07,1.21-2,.83-4.86-1.53-6.29l-56.58-34.11c-.71-.43-1.53-.65-2.35-.65-.3,0-.61,.03-.91,.09l-34.7,7.1c-4.06,.83-4.99,6.22-1.44,8.36l30.09,18.14,26.48,15.97Z"/>
  <path class="cls-1" d="M191.48,206.67c-.82,0-1.65-.08-2.45-.25l-34.7-7.1c-.73-.15-1.43-.37-2.1-.63v63.55c0,3.91,4.41,6.2,7.61,3.94l58.43-41.22c1.28-.9,2.04-2.38,2.04-3.94v-29.68l-22.52,13.57c-1.91,1.15-4.09,1.76-6.32,1.76Z"/>
  <path class="cls-1" d="M248.97,155.87l-34.7-7.1c-.3-.06-.61-.09-.91-.09-.82,0-1.64,.22-2.35,.65l-56.58,34.11c-2.36,1.43-2.74,4.29-1.53,6.29,.61,1,1.61,1.79,2.97,2.07l34.7,7.1c.3,.06,.61,.09,.91,.09,.82,0,1.64-.22,2.35-.65l26.48-15.97,30.09-18.14c3.55-2.14,2.62-7.53-1.44-8.36Z"/>
</svg> 