<?xml version="1.0" encoding="iso-8859-1"?>
<!-- Generator: Adobe Illustrator 19.1.0, SVG Export Plug-In . SVG Version: 6.00 Build 0)  -->
<svg version="1.1" id="Capa_1" xmlns="http://www.w3.org/2000/svg" xmlns:xlink="http://www.w3.org/1999/xlink" x="0px" y="0px"
	 viewBox="0 0 65 65" style="enable-background:new 0 0 65 65;" xml:space="preserve">
<g>
	<g>
		<path d="M32.5,0C14.579,0,0,14.579,0,32.5S14.579,65,32.5,65S65,50.421,65,32.5S50.421,0,32.5,0z M32.5,61
			C16.785,61,4,48.215,4,32.5S16.785,4,32.5,4S61,16.785,61,32.5S48.215,61,32.5,61z"/>
		<circle cx="33.017" cy="49.541" r="3.345"/>
		<path d="M32.385,12.789c-3.067,0-6.022,1.3-8.32,3.66c-0.771,0.792-0.754,2.058,0.037,2.828c0.791,0.771,2.059,0.754,2.828-0.037
			c1.539-1.581,3.477-2.451,5.455-2.451c4.326,0,7.846,3.441,7.846,7.671c0,4.085-3.808,7.668-7.862,7.668
			c-1.104,0-2.25,0.896-2.25,2v7.214c0,1.104,0.896,2,2,2s2-0.896,2-2v-5.396c6-0.984,9.862-5.845,9.862-11.486
			C43.98,18.024,38.917,12.789,32.385,12.789z"/>
	</g>
</g>
<g>
</g>
<g>
</g>
<g>
</g>
<g>
</g>
<g>
</g>
<g>
</g>
<g>
</g>
<g>
</g>
<g>
</g>
<g>
</g>
<g>
</g>
<g>
</g>
<g>
</g>
<g>
</g>
<g>
</g>
</svg>
