<?xml version="1.0" encoding="utf-8"?>
<!-- Generator: Adobe Illustrator 27.2.0, SVG Export Plug-In . SVG Version: 6.00 Build 0)  -->
<svg version="1.1" id="레이어_1" xmlns="http://www.w3.org/2000/svg" xmlns:xlink="http://www.w3.org/1999/xlink" x="0px"
	 y="0px" viewBox="0 0 24 24" style="enable-background:new 0 0 24 24;" xml:space="preserve">
<path d="M10,11c0.4,0,0.7-0.2,0.9-0.6c0.2-0.5,0.1-1.1-0.4-1.3l-2-1C8,7.8,7.4,8,7.1,8.5C6.8,8.9,6.9,9.5,7.4,9.8c0,0,0.1,0,0.1,0.1
	l2,1C9.7,11,9.8,11,10,11z M12,2C6.5,2,2,6.5,2,12s4.5,10,10,10s10-4.5,10-10S17.5,2,12,2z M12,20c-4.4,0-8-3.6-8-8s3.6-8,8-8
	s8,3.6,8,8S16.4,20,12,20z M8.4,15.3c-0.4,0.4-0.5,1-0.1,1.4c0.4,0.4,1,0.5,1.4,0.1c0,0,0,0,0,0c1.4-1.1,3.3-1.1,4.7,0
	c0.2,0.1,0.4,0.2,0.6,0.2c0.6,0,1-0.5,1-1c0-0.3-0.1-0.6-0.4-0.8C13.5,13.6,10.5,13.6,8.4,15.3z M15.5,8.1l-2,1
	c-0.5,0.2-0.7,0.8-0.4,1.3c0.2,0.3,0.5,0.5,0.9,0.5c0.2,0,0.3,0,0.4-0.1l2-1c0.5-0.3,0.6-0.9,0.3-1.4C16.5,8.1,16,7.9,15.5,8.1z"/>
</svg>
