<?xml version="1.0" encoding="utf-8"?>
<!-- Generator: Adobe Illustrator 27.2.0, SVG Export Plug-In . SVG Version: 6.00 Build 0)  -->
<svg version="1.1" id="레이어_1" xmlns="http://www.w3.org/2000/svg" xmlns:xlink="http://www.w3.org/1999/xlink" x="0px"
	 y="0px" viewBox="0 0 24 24" style="enable-background:new 0 0 24 24;" xml:space="preserve">
<g>
	<g>
		<g>
			<path d="M12,17.1c-1.1,0-2.2-0.4-3.1-1.3l-0.1-0.1c-0.4-0.4-0.4-1,0-1.4s1-0.4,1.4,0l0.1,0.1c0.9,0.9,2.5,0.9,3.5-0.1
				c0.4-0.4,1-0.4,1.4,0s0.4,1,0,1.4C14.3,16.6,13.1,17.1,12,17.1z M17,11c-0.4,0-0.7-0.2-0.9-0.6c0-0.1-0.3-0.2-0.6-0.2
				s-0.6,0.1-0.6,0.2c-0.2,0.5-0.8,0.7-1.3,0.4c-0.5-0.2-0.7-0.8-0.4-1.3c0.4-0.8,1.3-1.3,2.4-1.3s2,0.5,2.4,1.3
				c0.2,0.5,0,1.1-0.4,1.3C17.3,11,17.2,11,17,11z M10,11c-0.4,0-0.7-0.2-0.9-0.6c0-0.1-0.3-0.2-0.6-0.2s-0.6,0.1-0.6,0.2
				c-0.2,0.5-0.8,0.7-1.3,0.4C6.1,10.6,5.9,10,6.1,9.6c0.4-0.8,1.3-1.3,2.4-1.3s2,0.5,2.4,1.3c0.2,0.5,0,1.1-0.4,1.3
				C10.3,11,10.2,11,10,11z"/>
		</g>
	</g>
	<path d="M12,2C6.5,2,2,6.5,2,12s4.5,10,10,10s10-4.5,10-10S17.5,2,12,2z M12,20c-4.4,0-8-3.6-8-8s3.6-8,8-8s8,3.6,8,8
		S16.4,20,12,20z"/>
</g>
</svg>
