<?xml version="1.0" encoding="utf-8"?>
<!-- Generator: Adobe Illustrator 27.2.0, SVG Export Plug-In . SVG Version: 6.00 Build 0)  -->
<svg version="1.1" id="레이어_1" xmlns="http://www.w3.org/2000/svg" xmlns:xlink="http://www.w3.org/1999/xlink" x="0px"
	 y="0px" viewBox="0 0 24 24" style="enable-background:new 0 0 24 24;" xml:space="preserve">
<g>
	<g>
		<path d="M12,22C6.5,22,2,17.5,2,12S6.5,2,12,2c5.5,0,10,4.5,10,10S17.5,22,12,22z M12,4c-4.4,0-8,3.6-8,8c0,4.4,3.6,8,8,8
			s8-3.6,8-8C20,7.6,16.4,4,12,4z M15,11c-0.6,0-1-0.4-1-1s0.4-1,1-1h0c0.6,0,1,0.4,1,1S15.6,11,15,11z M9,11c-0.6,0-1-0.4-1-1
			s0.4-1,1-1h0c0.6,0,1,0.4,1,1S9.6,11,9,11z"/>
	</g>
	<g>
		<path d="M9.5,16.3c-0.3,0-0.5-0.1-0.7-0.3c-0.4-0.4-0.4-1,0-1.4c1.7-1.8,4.6-1.8,6.4-0.1c0,0,0.1,0.1,0.1,0.1c0.4,0.4,0.4,1,0,1.4
			c-0.4,0.4-1,0.4-1.4,0c-1-1-2.6-1-3.6,0C10,16.1,9.8,16.3,9.5,16.3z"/>
	</g>
</g>
</svg>
