<?xml version="1.0" encoding="utf-8"?>
<!-- Generator: Adobe Illustrator 27.2.0, SVG Export Plug-In . SVG Version: 6.00 Build 0)  -->
<svg version="1.1" id="레이어_1" xmlns="http://www.w3.org/2000/svg" xmlns:xlink="http://www.w3.org/1999/xlink" x="0px"
	 y="0px" viewBox="0 0 24 24" style="enable-background:new 0 0 24 24;" xml:space="preserve">
<style type="text/css">
	.st0{fill-rule:evenodd;clip-rule:evenodd;}
</style>
<g>
	<path d="M10,10c0,0.6-0.4,1-1,1s-1-0.4-1-1s0.4-1,1-1S10,9.4,10,10z M15,11c0.6,0,1-0.4,1-1s-0.4-1-1-1s-1,0.4-1,1S14.4,11,15,11z"
		/>
	<path class="st0" d="M12,22c5.5,0,10-4.5,10-10S17.5,2,12,2S2,6.5,2,12S6.5,22,12,22z M12,20c4.4,0,8-3.6,8-8s-3.6-8-8-8
		s-8,3.6-8,8S7.6,20,12,20z"/>
</g>
</svg>
