<?xml version="1.0" encoding="utf-8"?>
<!-- Generator: Adobe Illustrator 27.2.0, SVG Export Plug-In . SVG Version: 6.00 Build 0)  -->
<svg version="1.1" id="레이어_1" xmlns="http://www.w3.org/2000/svg" xmlns:xlink="http://www.w3.org/1999/xlink" x="0px"
	 y="0px" viewBox="0 0 24 24" style="enable-background:new 0 0 24 24;" xml:space="preserve">
<path d="M20.1,16.7c-0.3,0.5-1,0.7-1.5,0.4c0,0,0,0,0,0l-5.5-3.1v6.3c0,0.6-0.5,1.1-1.1,1.1c-0.6,0-1.1-0.5-1.1-1.1v-6.3l-5.5,3.1
	c-0.5,0.3-1.2,0.1-1.5-0.4c-0.3-0.5-0.1-1.2,0.4-1.5L9.8,12L4.3,8.8c-0.5-0.3-0.7-1-0.4-1.5c0.3-0.5,1-0.7,1.5-0.4l0,0l5.5,3.2V3.7
	c0-0.6,0.5-1.1,1.1-1.1c0.6,0,1.1,0.5,1.1,1.1V10l5.5-3.1c0.5-0.3,1.2-0.1,1.5,0.4s0.1,1.2-0.4,1.5L14.2,12l5.5,3.2
	C20.2,15.5,20.4,16.1,20.1,16.7z"/>
</svg>
