<?xml version="1.0" encoding="utf-8"?>
<!-- Generator: Adobe Illustrator 27.2.0, SVG Export Plug-In . SVG Version: 6.00 Build 0)  -->
<svg version="1.1" id="레이어_1" xmlns="http://www.w3.org/2000/svg" xmlns:xlink="http://www.w3.org/1999/xlink" x="0px"
	 y="0px" viewBox="0 0 24 24" style="enable-background:new 0 0 24 24;" xml:space="preserve">
<path d="M20.9,9.6c-0.1-0.4-0.5-0.7-1-0.8L15,8.4l-1.9-4.5c-0.2-0.4-0.6-0.7-1.1-0.7c0,0,0,0,0,0c-0.5,0-0.9,0.3-1.1,0.7L9,8.4
	L4.1,8.8c-0.5,0-0.9,0.3-1,0.8c-0.1,0.5,0,0.9,0.3,1.2l3.7,3.2l-1.1,4.8c-0.1,0.5,0.1,0.9,0.4,1.2c0.4,0.3,0.9,0.3,1.3,0.1l4.2-2.5
	l4.2,2.6c0.2,0.1,0.4,0.2,0.6,0.2c0.2,0,0.5-0.1,0.7-0.2c0.4-0.3,0.6-0.7,0.4-1.2l-1.1-4.8l3.7-3.2C20.9,10.5,21.1,10.1,20.9,9.6z
	 M15.7,17.6L12,15.4l-3.7,2.2l1-4.2L6,10.6l4.3-0.4l1.7-4l1.7,4l4.3,0.4l-3.2,2.8l-0.1,0L15.7,17.6z"/>
</svg>
