<?xml version="1.0" encoding="utf-8"?>
<!-- Generator: Adobe Illustrator 27.2.0, SVG Export Plug-In . SVG Version: 6.00 Build 0)  -->
<svg version="1.1" id="레이어_1" xmlns="http://www.w3.org/2000/svg" xmlns:xlink="http://www.w3.org/1999/xlink" x="0px"
	 y="0px" viewBox="0 0 24 24" style="enable-background:new 0 0 24 24;" xml:space="preserve">
<g>
	<path d="M4.9,20C4.9,20,4.9,20,4.9,20c-0.4,0-0.7-0.1-1-0.2c-1.5-0.6-2.3-2.4-1.7-3.9c0,0,0-0.1,0.1-0.1L9.4,3.5
		C9.6,3,10,2.6,10.5,2.3c1.4-0.8,3.3-0.3,4.1,1.2l7.1,12.2c0,0,0,0.1,0.1,0.1c0.1,0.4,0.2,0.7,0.2,1.1c0,1.7-1.3,3-3,3H5
		C5,20,4.9,20,4.9,20z M4,16.7c-0.2,0.5,0.1,1,0.6,1.2C4.7,18,4.8,18,4.9,18c0,0,0,0,0.1,0h14c0.3,0,0.5-0.1,0.7-0.3S20,17.3,20,17
		c0-0.1,0-0.2-0.1-0.3L12.9,4.5C12.6,4,12,3.8,11.5,4.1c-0.2,0.1-0.3,0.2-0.4,0.4L4,16.7z"/>
</g>
</svg>
